<svg width="96" height="81" viewBox="0 0 96 81" fill="none" xmlns="http://www.w3.org/2000/svg">
<path d="M2.24158 16.5369C2.24158 9.28557 8.11991 3.40723 15.3712 3.40723H79.9252C87.1765 3.40723 93.0548 9.28556 93.0548 16.5369V64.6788C93.0548 71.9301 87.1765 77.8084 79.9252 77.8084H15.3712C8.11991 77.8084 2.24158 71.9301 2.24158 64.6788V16.5369Z" fill="#D7B184" stroke="#1F2024" stroke-width="4.37654"/>
<path d="M3.33582 70.6965C5.20371 70.6965 7.05331 70.3286 8.77902 69.6138C10.5047 68.899 12.0727 67.8513 13.3935 66.5305C14.7143 65.2097 15.7621 63.6417 16.4769 61.916C17.1917 60.1903 17.5596 58.3407 17.5596 56.4728C17.5596 54.6049 17.1917 52.7553 16.4769 51.0296C15.7621 49.3039 14.7143 47.7359 13.3935 46.4151C12.0727 45.0943 10.5047 44.0466 8.77902 43.3317C7.05331 42.6169 5.20371 42.249 3.33582 42.249L3.33582 56.4728L3.33582 70.6965Z" fill="#E36776" fill-opacity="0.5"/>
<path d="M91.9608 70.6965C90.0929 70.6965 88.2433 70.3286 86.5176 69.6138C84.7919 68.899 83.2239 67.8513 81.9031 66.5305C80.5823 65.2097 79.5346 63.6417 78.8198 61.916C78.105 60.1903 77.737 58.3407 77.737 56.4728C77.737 54.6049 78.105 52.7553 78.8198 51.0296C79.5346 49.3039 80.5823 47.7359 81.9031 46.4151C83.2239 45.0943 84.7919 44.0466 86.5176 43.3317C88.2433 42.6169 90.0929 42.249 91.9608 42.249L91.9608 56.4728L91.9608 70.6965Z" fill="#E36776" fill-opacity="0.5"/>
<path d="M61.8721 48.8138C61.8721 50.1069 61.6173 51.3874 61.1225 52.5821C60.6276 53.7769 59.9023 54.8624 58.9879 55.7768C58.0735 56.6912 56.9879 57.4165 55.7932 57.9114C54.5985 58.4063 53.318 58.661 52.0248 58.661C50.7317 58.661 49.4512 58.4063 48.2565 57.9114C47.0617 57.4165 45.9762 56.6912 45.0618 55.7768C44.1474 54.8624 43.4221 53.7769 42.9272 52.5821C42.4323 51.3874 42.1776 50.1069 42.1776 48.8138L52.0248 48.8138H61.8721Z" fill="#1F2024"/>
<circle cx="26.8597" cy="40.0606" r="7.11188" fill="#1F2024"/>
<circle cx="29.3214" cy="37.599" r="2.46181" fill="white"/>
<circle cx="72.8134" cy="40.0606" r="7.11188" fill="#1F2024"/>
<circle cx="75.2752" cy="37.599" r="2.46181" fill="white"/>
<g filter="url(#filter0_i)">
<path d="M52.8534 8.19561L17.0125 25.837C19.6673 18.7804 21.7765 8.19561 19.6673 3.40723H77.1899C72.7589 12.1095 65.1416 16.2147 51.113 21.3006C52.7499 16.7216 53.2597 13.9247 52.8534 8.19561Z" fill="#1058C5"/>
</g>
<path d="M52.8534 8.19561L17.0125 25.837C19.6673 18.7804 21.7765 8.19561 19.6673 3.40723H77.1899C72.7589 12.1095 65.1416 16.2147 51.113 21.3006C52.7499 16.7216 53.2597 13.9247 52.8534 8.19561Z" stroke="#1F2024" stroke-width="4.37654" stroke-linejoin="round"/>
<mask id="mask0" mask-type="alpha" maskUnits="userSpaceOnUse" x="0" y="1" width="96" height="79">
<path d="M0.0533447 16.5366C0.0533447 8.0768 6.9114 1.21875 15.3712 1.21875H79.9252C88.3851 1.21875 95.2431 8.07681 95.2431 16.5366V64.6786C95.2431 73.1385 88.3851 79.9965 79.9252 79.9965H15.3713C6.91142 79.9965 0.0533447 73.1385 0.0533447 64.6786V16.5366Z" fill="#C4C4C4"/>
</mask>
<g mask="url(#mask0)">
<g filter="url(#filter1_d)">
<path d="M2.24109 16.5369C2.24109 9.28557 8.11942 3.40723 15.3707 3.40723H79.9247C87.176 3.40723 93.0543 9.28556 93.0543 16.5369V64.6788C93.0543 71.9301 87.176 77.8084 79.9247 77.8084H15.3707C8.11942 77.8084 2.24109 71.9301 2.24109 64.6788V16.5369Z" stroke="#1F2024" stroke-width="4.37654"/>
</g>
</g>
<defs>
<filter id="filter0_i" x="14.8241" y="1.21899" width="64.5541" height="26.8064" filterUnits="userSpaceOnUse" color-interpolation-filters="sRGB">
<feFlood flood-opacity="0" result="BackgroundImageFix"/>
<feBlend mode="normal" in="SourceGraphic" in2="BackgroundImageFix" result="shape"/>
<feColorMatrix in="SourceAlpha" type="matrix" values="0 0 0 0 0 0 0 0 0 0 0 0 0 0 0 0 0 0 127 0" result="hardAlpha"/>
<feOffset dx="-8.75308" dy="4.37654"/>
<feComposite in2="hardAlpha" operator="arithmetic" k2="-1" k3="1"/>
<feColorMatrix type="matrix" values="0 0 0 0 0 0 0 0 0 0 0 0 0 0 0 0 0 0 0.16 0"/>
<feBlend mode="normal" in2="shape" result="effect1_innerShadow"/>
</filter>
<filter id="filter1_d" x="-2.13541" y="1.21899" width="97.3781" height="80.966" filterUnits="userSpaceOnUse" color-interpolation-filters="sRGB">
<feFlood flood-opacity="0" result="BackgroundImageFix"/>
<feColorMatrix in="SourceAlpha" type="matrix" values="0 0 0 0 0 0 0 0 0 0 0 0 0 0 0 0 0 0 127 0"/>
<feOffset dx="-2.18827" dy="2.18827"/>
<feColorMatrix type="matrix" values="0 0 0 0 0 0 0 0 0 0 0 0 0 0 0 0 0 0 0.16 0"/>
<feBlend mode="normal" in2="BackgroundImageFix" result="effect1_dropShadow"/>
<feBlend mode="normal" in="SourceGraphic" in2="effect1_dropShadow" result="shape"/>
</filter>
</defs>
</svg>
