<svg width="40" height="40" viewBox="0 0 40 40" fill="none" xmlns="http://www.w3.org/2000/svg">
                      <path d="M11.0912 2.08893C12.6382 2.28088 14.173 2.77929 15.6079 3.60772C21.3474 6.92142 23.3139 14.2605 20.0002 20C16.6865 14.2605 9.34738 12.294 3.60787 15.6077C2.17508 16.4349 0.977418 17.513 0.0383301 18.7544C0.48771 11.4411 4.86728 5.1907 11.0912 2.08893Z" fill="#FFD600"></path>
                      <path d="M0.0381557 18.7544C0.977243 17.513 2.17491 16.4349 3.6077 15.6077C9.34721 12.2939 16.6863 14.2604 20 20C13.3726 20 8 25.3725 8 32C8 33.6554 8.3352 35.2325 8.94142 36.6671C3.55202 33.0841 0 26.9568 0 20C0 19.5816 0.0128428 19.1663 0.0381557 18.7544Z" fill="#1BC47D"></path>
                      <path d="M8.94142 36.6672C8.3352 35.2325 8 33.6554 8 32C8 25.3726 13.3726 20 20 20C16.6863 25.7395 18.6528 33.0786 24.3923 36.3923C25.8272 37.2207 27.362 37.7191 28.9089 37.9111C26.2263 39.248 23.2009 40 20 40C15.9112 40 12.109 38.773 8.94142 36.6672Z" fill="#18A0FB"></path>
                      <path d="M28.909 37.9111C27.3621 37.7191 25.8273 37.2207 24.3924 36.3923C18.6529 33.0786 16.6864 25.7395 20.0001 20C23.3138 25.7395 30.6529 27.706 36.3924 24.3923C37.8252 23.5651 39.0228 22.487 39.9619 21.2456C39.5125 28.5589 35.133 34.8093 28.909 37.9111Z" fill="#7B61FF"></path>
                      <path d="M39.9618 21.2456C39.0228 22.487 37.8251 23.5651 36.3923 24.3923C30.6528 27.706 23.3137 25.7395 20 20C26.6274 20 32 14.6274 32 7.99998C32 6.34458 31.6648 4.76747 31.0586 3.33282C36.448 6.91583 40 13.0431 40 20C40 20.4183 39.9872 20.8336 39.9618 21.2456Z" fill="#F24822"></path>
                      <path d="M31.0586 3.33284C31.6648 4.76749 32 6.3446 32 8C32 14.6274 26.6274 20 20 20C23.3137 14.2605 21.3472 6.9214 15.6077 3.6077C14.1728 2.77927 12.638 2.28086 11.0911 2.08891C13.7737 0.751976 16.799 0 20 0C24.0888 0 27.891 1.22699 31.0586 3.33284Z" fill="#F97F0F"></path>
                    </svg>
