<svg width="21" height="20" viewBox="0 0 21 20" fill="none" xmlns="http://www.w3.org/2000/svg">
                  <g clip-path="url(#clip0_602_2995)">
                    <path d="M13 11.6666C13.2718 11.6666 13.4944 11.4667 13.5322 11.1839C13.9058 8.66508 14.2493 8.3144 16.6723 8.03913C16.9516 8.0052 17.1667 7.77141 17.1667 7.49992C17.1667 7.22465 16.9553 6.99841 16.676 6.95693C14.2681 6.62134 13.97 6.32722 13.5322 3.81214C13.4831 3.5331 13.268 3.33325 13 3.33325C12.7245 3.33325 12.5056 3.5331 12.4603 3.81591C12.0942 6.33099 11.7508 6.68167 9.33154 6.95693C9.04471 6.99464 8.83335 7.22088 8.83335 7.49992C8.83335 7.77141 9.03716 7.99766 9.32399 8.03913C11.7357 8.38227 12.0301 8.67262 12.4603 11.1877C12.5169 11.4705 12.7358 11.6666 13 11.6666Z"></path>
                    <path fill-rule="evenodd" clip-rule="evenodd" d="M0.5 13.9641L-1.78711 16.2512L-0.372896 17.6654L0.53775 16.7548C0.580298 17.3624 0.670801 17.8021 0.863312 18.18C1.18289 18.8072 1.69282 19.3171 2.32003 19.6367C3.03307 20 3.96649 20 5.83333 20H14.4641L16.7685 22.3044L18.1827 20.8901L17.2548 19.9622C17.8624 19.9197 18.3021 19.8292 18.68 19.6367C19.3072 19.3171 19.8171 18.8072 20.1367 18.18C20.5 17.4669 20.5 16.5335 20.5 14.6667V5.33333C20.5 3.46649 20.5 2.53307 20.1367 1.82003C19.8171 1.19282 19.3072 0.682889 18.68 0.363312C17.9669 0 17.0335 0 15.1667 0H5.83333C3.96649 0 3.03307 0 2.32003 0.363312C1.69282 0.682889 1.18289 1.19282 0.863312 1.82003C0.5 2.53307 0.5 3.46649 0.5 5.33333V13.9641ZM5.83333 2H15.1667C16.1331 2 16.7376 2.00156 17.1931 2.03877C17.6253 2.07408 17.7444 2.13127 17.772 2.14532C18.0229 2.27316 18.2268 2.47713 18.3547 2.72801C18.3687 2.7556 18.4259 2.87471 18.4612 3.30687C18.4984 3.76238 18.5 4.36691 18.5 5.33333V14.6667C18.5 15.6331 18.4984 16.2376 18.4612 16.6931C18.4259 17.1253 18.3687 17.2444 18.3547 17.272C18.2268 17.5229 18.0229 17.7268 17.772 17.8547C17.7444 17.8687 17.6253 17.9259 17.1931 17.9612C16.7577 17.9968 16.1862 17.9998 15.2925 18L8.22553 10.933C6.92921 9.63667 4.82745 9.63666 3.53113 10.933L2.5 11.9641V5.33333C2.5 4.36691 2.50156 3.76238 2.53877 3.30687C2.57408 2.87471 2.63127 2.7556 2.64532 2.72801C2.77316 2.47713 2.97713 2.27316 3.22801 2.14532C3.2556 2.13127 3.37471 2.07408 3.80687 2.03877C4.26238 2.00156 4.86691 2 5.83333 2ZM12.4641 18H5.83333C4.86691 18 4.26238 17.9984 3.80687 17.9612C3.37471 17.9259 3.2556 17.8687 3.22801 17.8547C2.97713 17.7268 2.77316 17.5229 2.64532 17.272C2.63127 17.2444 2.57408 17.1253 2.53877 16.6931C2.5032 16.2577 2.50021 15.6862 2.50001 14.7925L4.94534 12.3472C5.46062 11.8319 6.29604 11.8319 6.81132 12.3472L12.4641 18Z"></path>
                  </g>
                  <defs>
                    <clipPath id="clip0_602_2995">
                      <rect width="20" height="20" fill="white" transform="translate(0.5)"></rect>
                    </clipPath>
                  </defs>
                </svg>
