<svg width="20" height="20" viewBox="0 0 20 20" fill="white" xmlns="http://www.w3.org/2000/svg">
                  <path fill-rule="evenodd" clip-rule="evenodd" d="M9.55278 0.772199C9.83431 0.631435 10.1657 0.631435 10.4472 0.772199L18.7805 4.93887C19.1193 5.10826 19.3333 5.45452 19.3333 5.83329C19.3333 6.21206 19.1193 6.55833 18.7805 6.72772L10.4472 10.8944C10.1657 11.0351 9.83431 11.0351 9.55278 10.8944L1.21945 6.72772C0.880664 6.55833 0.666662 6.21206 0.666662 5.83329C0.666662 5.45452 0.880664 5.10826 1.21945 4.93887L9.55278 0.772199ZM3.90273 5.83329L10 8.88193L16.0973 5.83329L10 2.78466L3.90273 5.83329ZM0.772235 13.7194C1.01922 13.2254 1.6199 13.0252 2.11388 13.2722L10 17.2153L17.8861 13.2722C18.3801 13.0252 18.9808 13.2254 19.2278 13.7194C19.4747 14.2134 19.2745 14.8141 18.7805 15.0611L10.4472 19.2277C10.1657 19.3685 9.83431 19.3685 9.55278 19.2277L1.21945 15.0611C0.72547 14.8141 0.525246 14.2134 0.772235 13.7194ZM2.11388 9.10557C1.6199 8.85858 1.01922 9.05881 0.772235 9.55279C0.525246 10.0468 0.72547 10.6474 1.21945 10.8944L9.55278 15.0611C9.83431 15.2019 10.1657 15.2019 10.4472 15.0611L18.7805 10.8944C19.2745 10.6474 19.4747 10.0468 19.2278 9.55279C18.9808 9.05881 18.3801 8.85858 17.8861 9.10557L10 13.0486L2.11388 9.10557Z"></path>
                </svg>
