<svg width="20" height="20" viewBox="0 0 20 20" fill="none" xmlns="http://www.w3.org/2000/svg">
                  <path fill-rule="evenodd" clip-rule="evenodd" d="M2.5 4C1.94772 4 1.5 4.44772 1.5 5C1.5 5.55228 1.94772 6 2.5 6H17.5C18.0523 6 18.5 5.55228 18.5 5C18.5 4.44772 18.0523 4 17.5 4H2.5ZM5 7.33333C4.44772 7.33333 4 7.78105 4 8.33333C4 8.88562 4.44772 9.33333 5 9.33333H15C15.5523 9.33333 16 8.88562 16 8.33333C16 7.78105 15.5523 7.33333 15 7.33333H5ZM1.5 11.6667C1.5 11.1144 1.94772 10.6667 2.5 10.6667H17.5C18.0523 10.6667 18.5 11.1144 18.5 11.6667C18.5 12.219 18.0523 12.6667 17.5 12.6667H2.5C1.94772 12.6667 1.5 12.219 1.5 11.6667ZM5 14C4.44772 14 4 14.4477 4 15C4 15.5523 4.44772 16 5 16H15C15.5523 16 16 15.5523 16 15C16 14.4477 15.5523 14 15 14H5Z"></path>
                </svg>
